<?xml version="1.0" encoding="iso-8859-1"?>
<!-- Uploaded to: SVG Repo, www.svgrepo.com, Generator: SVG Repo Mixer Tools -->
<svg height="800px" width="800px" version="1.1" id="Layer_1" xmlns="http://www.w3.org/2000/svg" xmlns:xlink="http://www.w3.org/1999/xlink" 
	 viewBox="0 0 512.001 512.001" xml:space="preserve">
<polygon style="fill:#FF0C38;" points="418.893,181.033 504.575,181.033 470.762,255.994 504.575,330.956 398.3,330.956 
	123.676,330.956 7.426,330.956 41.239,255.994 7.426,181.033 102.074,181.033 "/>
<polygon style="fill:#FFA5B5;" points="41.259,255.991 23.167,296.102 488.876,296.102 470.783,255.991 487.946,217.942 
	24.096,217.942 "/>
<path style="opacity:0.32;fill:#A5001E;enable-background:new    ;" d="M398.3,331.983h44.831
	c9.54-23.102,14.815-48.414,14.815-74.961c0-26.547-5.275-51.859-14.815-74.961h-24.237h-316.82H79.668
	c-9.54,23.102-14.815,48.414-14.815,74.961c0,26.547,5.275,51.859,14.815,74.961h44.007H398.3z"/>
<path style="fill:#EEBF00;" d="M270.086,85.155l33.842,29.325l44.323-6.374c6.53-0.939,12.757,3.063,14.616,9.393l12.615,42.966
	l40.733,18.601c6,2.74,9.076,9.474,7.217,15.804l-12.617,42.965l24.21,37.67c3.567,5.55,2.514,12.877-2.472,17.198l-33.843,29.323
	l0.001,44.78c0,6.598-4.848,12.192-11.377,13.131l-44.324,6.372l-24.209,37.671c-3.566,5.55-10.669,7.635-16.67,4.895
	l-40.732-18.602l-40.732,18.602c-6.001,2.74-13.104,0.655-16.67-4.895l-24.209-37.672l-44.324-6.372
	c-6.53-0.939-11.377-6.533-11.377-13.131l0.001-44.78l-33.843-29.323c-4.986-4.32-6.039-11.648-2.472-17.198l24.21-37.67
	L99.366,194.87c-1.858-6.33,1.217-13.063,7.217-15.804l40.733-18.601l12.615-42.966c1.858-6.33,8.086-10.332,14.616-9.393
	l44.323,6.374l33.842-29.325C257.698,80.834,265.101,80.834,270.086,85.155z"/>
<circle style="fill:#CCA400;" cx="261.395" cy="255.989" r="115.872"/>
<circle style="fill:#FFEB99;stroke:#FFF5CC;stroke-miterlimit:10;" cx="261.395" cy="255.989" r="89.131"/>
<path style="opacity:0.22;fill:#FFFFFF;enable-background:new    ;" d="M376.2,160.464l-12.615-42.966
	c-1.858-6.33-8.086-10.332-14.616-9.393l-10.033,1.442L124.805,323.679l-0.001,43.126c0,6.597,4.848,12.192,11.377,13.131
	l44.324,6.372l2.173,3.382L400.71,171.658L376.2,160.464z"/>
<path style="opacity:0.11;fill:#CCA400;enable-background:new    ;" d="M436.491,275.506l-24.21-37.67l12.617-42.965
	c1.859-6.33-1.217-13.063-7.217-15.804l-40.733-18.601L364.332,117.5c-1.858-6.33-8.086-10.332-14.616-9.393l-14.55,2.092
	c11.829,23.54,18.497,50.12,18.497,78.26c0,96.401-78.149,174.55-174.55,174.55c-18.687,0-36.682-2.948-53.561-8.384v12.182
	c0,6.598,4.847,12.192,11.377,13.131l44.324,6.372l24.209,37.671c3.566,5.55,10.669,7.635,16.67,4.895l40.732-18.602l40.732,18.602
	c6.001,2.74,13.104,0.655,16.67-4.895l24.209-37.671l44.324-6.372c6.53-0.939,11.377-6.533,11.377-13.131l-0.001-44.78
	l33.843-29.323C439.004,288.383,440.058,281.056,436.491,275.506z"/>
<path d="M478.908,255.994l32.436-71.908c1.037-2.298,0.837-4.965-0.532-7.082c-1.367-2.118-3.716-3.397-6.237-3.397h-82.914
	c-0.754-0.474-1.534-0.919-2.361-1.297l-37.648-17.193l-11.659-39.712c-2.879-9.807-12.681-16.101-22.797-14.651l-40.967,5.892
	l-31.28-27.104c-7.724-6.694-19.374-6.694-27.099,0l-31.279,27.104l-40.967-5.892c-10.116-1.456-19.917,4.844-22.797,14.651
	l-11.659,39.712l-37.648,17.193c-0.828,0.378-1.607,0.823-2.362,1.297H7.426c-2.521,0-4.869,1.279-6.237,3.397
	s-1.568,4.784-0.532,7.082l32.436,71.908L0.657,327.902c-1.037,2.298-0.837,4.965,0.532,7.082c1.367,2.118,3.717,3.397,6.237,3.397
	h109.237l-0.001,28.424c0,10.221,7.629,19.025,17.746,20.481l40.967,5.889l22.375,34.819c5.526,8.599,16.705,11.88,26.002,7.635
	l37.647-17.195l37.647,17.195c2.741,1.251,5.644,1.849,8.519,1.849c6.877,0,13.586-3.421,17.483-9.484l22.375-34.819l40.968-5.889
	c10.117-1.454,17.746-10.259,17.746-20.481l-0.001-28.424h98.439c2.521,0,4.869-1.279,6.237-3.397
	c1.368-2.118,1.568-4.784,0.532-7.082L478.908,255.994z M48.006,259.048c0.876-1.941,0.876-4.165,0-6.106l-29.086-64.483h72.696
	c-0.374,2.787-0.205,5.677,0.626,8.503l11.661,39.712l-22.377,34.818c-5.526,8.598-3.868,20.129,3.857,26.824l29.103,25.216H18.921
	L48.006,259.048z M386.278,372.586l-44.324,6.372c-2.132,0.307-4.025,1.524-5.19,3.335l-24.209,37.671
	c-1.559,2.427-4.714,3.355-7.339,2.155l-40.732-18.603c-0.979-0.448-2.033-0.671-3.085-0.671s-2.105,0.224-3.085,0.671
	l-40.732,18.603c-2.623,1.199-5.779,0.272-7.339-2.155l-24.209-37.671c-1.164-1.812-3.058-3.029-5.19-3.335l-44.324-6.372
	c-2.855-0.411-5.009-2.896-5.009-5.781l0.001-44.78c0-2.153-0.935-4.202-2.563-5.611l-33.843-29.323
	c-2.181-1.89-2.648-5.144-1.089-7.572l24.211-37.67c1.164-1.813,1.485-4.04,0.878-6.106l-12.617-42.965
	c-0.813-2.768,0.553-5.759,3.177-6.958l40.733-18.601c1.959-0.895,3.433-2.596,4.04-4.662l12.615-42.966
	c0.813-2.768,3.578-4.55,6.435-4.135l44.323,6.374c2.131,0.304,4.291-0.329,5.919-1.738l33.842-29.325
	c2.18-1.889,5.468-1.889,7.649,0l33.842,29.325c1.628,1.411,3.784,2.042,5.919,1.738l44.324-6.374
	c2.854-0.415,5.622,1.367,6.435,4.135l12.615,42.966c0.607,2.066,2.081,3.768,4.04,4.662l40.733,18.601
	c0.067,0.031,0.124,0.076,0.19,0.109c0.544,0.62,1.189,1.148,1.911,1.558c1.161,1.453,1.628,3.417,1.077,5.29l-12.617,42.965
	c-0.607,2.066-0.286,4.295,0.878,6.106l24.211,37.67c1.56,2.428,1.092,5.682-1.088,7.572l-33.843,29.323
	c-1.629,1.41-2.563,3.458-2.563,5.611v6.508c-0.262,0.76-0.412,1.572-0.412,2.422c0,0.849,0.15,1.662,0.412,2.422l0.001,33.428
	C391.287,369.691,389.133,372.176,386.278,372.586z M408.314,323.53l29.103-25.217c7.724-6.694,9.382-18.224,3.856-26.824
	l-22.377-34.817l11.661-39.712c0.831-2.827,1-5.716,0.626-8.503h61.898l-29.087,64.483c-0.875,1.941-0.875,4.165,0,6.106
	l29.087,64.483H408.314z"/>
<path d="M261.399,132.701c-67.984,0-123.293,55.308-123.293,123.293s55.309,123.293,123.293,123.293s123.293-55.309,123.293-123.293
	S329.384,132.701,261.399,132.701z M261.399,364.437c-59.795,0-108.443-48.648-108.443-108.443s48.648-108.443,108.443-108.443
	s108.443,48.648,108.443,108.443S321.195,364.437,261.399,364.437z"/>
<path d="M261.399,159.441c-53.24,0-96.555,43.313-96.555,96.554s43.314,96.555,96.555,96.555s96.555-43.314,96.555-96.555
	S314.639,159.441,261.399,159.441z M261.399,337.699c-45.052,0-81.704-36.652-81.704-81.704s36.652-81.703,81.704-81.703
	s81.704,36.651,81.704,81.703S306.451,337.699,261.399,337.699z"/>
</svg>